HIERARCHY
ROOT Hips
{
  OFFSET -0.826485 102.362 85.5251
  CHANNELS 6 Xposition Yposition Zposition Zrotation Xrotation Yrotation
  JOINT Spine
  {
    OFFSET 0 10.1816 0.1315
    CHANNELS 6 Xposition Yposition Zposition Zrotation Xrotation Yrotation
    JOINT Spine1
    {
      OFFSET 0 10.0835 -1.0008
      CHANNELS 6 Xposition Yposition Zposition Zrotation Xrotation Yrotation
      JOINT Spine2
      {
        OFFSET 0 9.1 -1.3734
        CHANNELS 6 Xposition Yposition Zposition Zrotation Xrotation Yrotation
        JOINT Neck
        {
          OFFSET 0 16.6717 -2.5162
          CHANNELS 6 Xposition Yposition Zposition Zrotation Xrotation Yrotation
          JOINT Head
          {
            OFFSET 0 9.6179 1.685
            CHANNELS 6 Xposition Yposition Zposition Zrotation Xrotation Yrotation
            JOINT HeadTop_End
            {
              OFFSET 0 17.8152 2.585
              CHANNELS 6 Xposition Yposition Zposition Zrotation Xrotation Yrotation
              End Site
              {
                OFFSET 0 0 0
              }
            }
            JOINT LeftEye
            {
              OFFSET 3.0676 6.4095 9.2836
              CHANNELS 6 Xposition Yposition Zposition Zrotation Xrotation Yrotation
              End Site
              {
                OFFSET 0 0 0
              }
            }
            JOINT RightEye
            {
              OFFSET -3.0676 6.4095 9.2835
              CHANNELS 6 Xposition Yposition Zposition Zrotation Xrotation Yrotation
              End Site
              {
                OFFSET 0 0 0
              }
            }
          }
        }
        JOINT LeftShoulder
        {
          OFFSET 4.5704 10.946 -2.628
          CHANNELS 6 Xposition Yposition Zposition Zrotation Xrotation Yrotation
          JOINT LeftArm
          {
            OFFSET 10.5924 -0.5246 -2.2321
            CHANNELS 6 Xposition Yposition Zposition Zrotation Xrotation Yrotation
            JOINT LeftForeArm
            {
              OFFSET 27.8415 -0.0001 0
              CHANNELS 6 Xposition Yposition Zposition Zrotation Xrotation Yrotation
              JOINT LeftHand
              {
                OFFSET 28.3288 0 0
                CHANNELS 6 Xposition Yposition Zposition Zrotation Xrotation Yrotation
                JOINT LeftHandThumb1
                {
                  OFFSET 2.4661 -1.575 2.6824
                  CHANNELS 6 Xposition Yposition Zposition Zrotation Xrotation Yrotation
                  JOINT LeftHandThumb2
                  {
                    OFFSET 3.2298 -1.8647 1.8647
                    CHANNELS 6 Xposition Yposition Zposition Zrotation Xrotation Yrotation
                    JOINT LeftHandThumb3
                    {
                      OFFSET 2.6526 -1.5315 1.5315
                      CHANNELS 6 Xposition Yposition Zposition Zrotation Xrotation Yrotation
                      End Site
                      {
                        OFFSET 1.9546 -1.1285 1.1285
                      }
                    }
                  }
                }
                JOINT LeftHandIndex1
                {
                  OFFSET 9.1093 -0.5171 2.2601
                  CHANNELS 6 Xposition Yposition Zposition Zrotation Xrotation Yrotation
                  JOINT LeftHandIndex2
                  {
                    OFFSET 3.6764 0 0
                    CHANNELS 6 Xposition Yposition Zposition Zrotation Xrotation Yrotation
                    JOINT LeftHandIndex3
                    {
                      OFFSET 2.8831 0 0
                      CHANNELS 6 Xposition Yposition Zposition Zrotation Xrotation Yrotation
                      End Site
                      {
                        OFFSET 2.3927 0 0
                      }
                    }
                  }
                }
                JOINT LeftHandMiddle1
                {
                  OFFSET 9.5334 0 0
                  CHANNELS 6 Xposition Yposition Zposition Zrotation Xrotation Yrotation
                  JOINT LeftHandMiddle2
                  {
                    OFFSET 3.6982 0 0
                    CHANNELS 6 Xposition Yposition Zposition Zrotation Xrotation Yrotation
                    JOINT LeftHandMiddle3
                    {
                      OFFSET 2.9509 0 0
                      CHANNELS 6 Xposition Yposition Zposition Zrotation Xrotation Yrotation
                      End Site
                      {
                        OFFSET 2.8339 0 0
                      }
                    }
                  }
                }
                JOINT LeftHandRing1
                {
                  OFFSET 9.1045 -0.0439 -1.8651
                  CHANNELS 6 Xposition Yposition Zposition Zrotation Xrotation Yrotation
                  JOINT LeftHandRing2
                  {
                    OFFSET 3.154 0 0
                    CHANNELS 6 Xposition Yposition Zposition Zrotation Xrotation Yrotation
                    JOINT LeftHandRing3
                    {
                      OFFSET 2.9377 0 0
                      CHANNELS 6 Xposition Yposition Zposition Zrotation Xrotation Yrotation
                      End Site
                      {
                        OFFSET 2.6475 0 0
                      }
                    }
                  }
                }
                JOINT LeftHandPinky1
                {
                  OFFSET 8.0778 -0.4887 -3.8061
                  CHANNELS 6 Xposition Yposition Zposition Zrotation Xrotation Yrotation
                  JOINT LeftHandPinky2
                  {
                    OFFSET 3.6 0 0
                    CHANNELS 6 Xposition Yposition Zposition Zrotation Xrotation Yrotation
                    JOINT LeftHandPinky3
                    {
                      OFFSET 2.1142 0 0
                      CHANNELS 6 Xposition Yposition Zposition Zrotation Xrotation Yrotation
                      End Site
                      {
                        OFFSET 1.9757 0 0
                      }
                    }
                  }
                }
              }
            }
          }
        }
        JOINT RightShoulder
        {
          OFFSET -4.57 10.9462 -2.628
          CHANNELS 6 Xposition Yposition Zposition Zrotation Xrotation Yrotation
          JOINT RightArm
          {
            OFFSET -10.5928 -0.5248 -2.2321
            CHANNELS 6 Xposition Yposition Zposition Zrotation Xrotation Yrotation
            JOINT RightForeArm
            {
              OFFSET -27.8415 0 0
              CHANNELS 6 Xposition Yposition Zposition Zrotation Xrotation Yrotation
              JOINT RightHand
              {
                OFFSET -28.3288 0 0.0001
                CHANNELS 6 Xposition Yposition Zposition Zrotation Xrotation Yrotation
                JOINT RightHandPinky1
                {
                  OFFSET -8.0767 -0.4885 -3.806
                  CHANNELS 6 Xposition Yposition Zposition Zrotation Xrotation Yrotation
                  JOINT RightHandPinky2
                  {
                    OFFSET -3.6 0 0.0001
                    CHANNELS 6 Xposition Yposition Zposition Zrotation Xrotation Yrotation
                    JOINT RightHandPinky3
                    {
                      OFFSET -2.1142 0 0
                      CHANNELS 6 Xposition Yposition Zposition Zrotation Xrotation Yrotation
                      End Site
                      {
                        OFFSET -1.9757 0 0
                      }
                    }
                  }
                }
                JOINT RightHandRing1
                {
                  OFFSET -9.1036 -0.0439 -1.8651
                  CHANNELS 6 Xposition Yposition Zposition Zrotation Xrotation Yrotation
                  JOINT RightHandRing2
                  {
                    OFFSET -3.154 0 0
                    CHANNELS 6 Xposition Yposition Zposition Zrotation Xrotation Yrotation
                    JOINT RightHandRing3
                    {
                      OFFSET -2.9377 0 0
                      CHANNELS 6 Xposition Yposition Zposition Zrotation Xrotation Yrotation
                      End Site
                      {
                        OFFSET -2.6475 0 0
                      }
                    }
                  }
                }
                JOINT RightHandMiddle1
                {
                  OFFSET -9.5325 0 0
                  CHANNELS 6 Xposition Yposition Zposition Zrotation Xrotation Yrotation
                  JOINT RightHandMiddle2
                  {
                    OFFSET -3.6982 0 0
                    CHANNELS 6 Xposition Yposition Zposition Zrotation Xrotation Yrotation
                    JOINT RightHandMiddle3
                    {
                      OFFSET -2.9509 0 0
                      CHANNELS 6 Xposition Yposition Zposition Zrotation Xrotation Yrotation
                      End Site
                      {
                        OFFSET -2.8339 0 0.0001
                      }
                    }
                  }
                }
                JOINT RightHandIndex1
                {
                  OFFSET -9.1083 -0.5168 2.2601
                  CHANNELS 6 Xposition Yposition Zposition Zrotation Xrotation Yrotation
                  JOINT RightHandIndex2
                  {
                    OFFSET -3.6764 0 0
                    CHANNELS 6 Xposition Yposition Zposition Zrotation Xrotation Yrotation
                    JOINT RightHandIndex3
                    {
                      OFFSET -2.8831 0 0
                      CHANNELS 6 Xposition Yposition Zposition Zrotation Xrotation Yrotation
                      End Site
                      {
                        OFFSET -2.3927 0 0
                      }
                    }
                  }
                }
                JOINT RightHandThumb1
                {
                  OFFSET -2.4648 -1.5727 2.6826
                  CHANNELS 6 Xposition Yposition Zposition Zrotation Xrotation Yrotation
                  JOINT RightHandThumb2
                  {
                    OFFSET -3.2298 -1.8647 1.8647
                    CHANNELS 6 Xposition Yposition Zposition Zrotation Xrotation Yrotation
                    JOINT RightHandThumb3
                    {
                      OFFSET -2.6526 -1.5314 1.5314
                      CHANNELS 6 Xposition Yposition Zposition Zrotation Xrotation Yrotation
                      End Site
                      {
                        OFFSET -1.9546 -1.1285 1.1285
                      }
                    }
                  }
                }
              }
            }
          }
        }
      }
    }
  }
  JOINT LeftUpLeg
  {
    OFFSET 8.2078 -6.7517 -1.5996
    CHANNELS 6 Xposition Yposition Zposition Zrotation Xrotation Yrotation
    JOINT LeftLeg
    {
      OFFSET 0 -44.3705 0.2846
      CHANNELS 6 Xposition Yposition Zposition Zrotation Xrotation Yrotation
      JOINT LeftFoot
      {
        OFFSET 0 -44.4279 -2.9822
        CHANNELS 6 Xposition Yposition Zposition Zrotation Xrotation Yrotation
        JOINT LeftToeBase
        {
          OFFSET 0 -8.7287 10.7106
          CHANNELS 6 Xposition Yposition Zposition Zrotation Xrotation Yrotation
          End Site
          {
            OFFSET 0 -0.0007 9.2781
          }
        }
      }
    }
  }
  JOINT RightUpLeg
  {
    OFFSET -8.2078 -6.7517 -1.5996
    CHANNELS 6 Xposition Yposition Zposition Zrotation Xrotation Yrotation
    JOINT RightLeg
    {
      OFFSET 0 -44.3705 0.2862
      CHANNELS 6 Xposition Yposition Zposition Zrotation Xrotation Yrotation
      JOINT RightFoot
      {
        OFFSET 0 -44.4277 -2.9838
        CHANNELS 6 Xposition Yposition Zposition Zrotation Xrotation Yrotation
        JOINT RightToeBase
        {
          OFFSET 0 -8.7287 10.7106
          CHANNELS 6 Xposition Yposition Zposition Zrotation Xrotation Yrotation
          End Site
          {
            OFFSET 0 -0.0007 9.2781
          }
        }
      }
    }
  }
}
MOTION
Frames:	4
Frame Time:	0.0333333
1.03036 96.4359 61.6649 9.39368 -3.25416 -2.84287 0 10.1816 0.1315 -4.35151 5.55433 -3.8652 0 10.0835 -1.0008 -1.77535 3.20315 -0.521799 0 9.1 -1.3734 -1.7962 3.19361 -0.537445 0 16.6717 -2.5162 -2.20619 -9.23186 -1.00641 8.88178e-016 9.6179 1.685 5.14926 -11.397 13.112 -4.44089e-016 17.8152 2.585 -1.98785e-016 -1.59028e-015 1.59028e-015 3.0676 6.4095 9.2836 -1.98785e-016 -1.59028e-015 1.59028e-015 -3.0676 6.4095 9.2835 -1.98785e-016 -1.59028e-015 1.59028e-015 4.5704 10.946 -2.628 -9.2796 6.63751 -14.4268 10.5924 -0.5246 -2.2321 -75.2335 -31.3911 -14.9947 27.8415 -0.0001 0 -0.000208777 -3.94338e-006 -26.4958 28.3288 0 2.84217e-014 43.2065 3.41987 14.0578 2.4661 -1.575 2.6824 9.69861 -1.82742 12.575 3.2298 -1.8647 1.8647 -7.1152 8.77697 26.0177 2.6526 -1.5315 1.5315 -1.3949 2.16001 0.337717 9.1093 -0.5171 2.2601 25.1757 -0.639516 -6.76749 3.6764 7.10543e-015 0 -29.3473 -0.88476 3.3779 2.8831 7.10543e-015 0 -18.6623 -0.362307 2.20472 9.5334 -1.42109e-014 0 23.7127 -0.538448 3.57561 3.6982 -7.10543e-015 0 -16.5117 -0.284143 1.9581 2.9509 1.42109e-014 0 -22.4063 -0.5203 2.62653 9.1045 -0.0439 -1.8651 20.0057 -0.319421 7.30399 3.154 2.13163e-014 0 -25.926 -0.693708 3.01299 2.9377 0 0 -5.28621 -0.0292922 0.634632 8.0778 -0.4887 -3.8061 13.8069 -0.103111 7.86178 3.6 1.42109e-014 0 -10.6244 0.623285 -2.77614 2.1142 -1.42109e-014 0 -26.3445 -0.715899 3.05823 -4.57 10.9462 -2.628 7.09673 2.34438 9.0408 -10.5928 -0.5248 -2.2321 72.7133 -15.1394 -8.0189 -27.8415 0 -7.10543e-015 2.08559e-005 6.46974e-006 33.0387 -28.3288 3.55271e-015 0.0001 -41.8185 16.705 32.8564 -8.0767 -0.4885 -3.806 -1.36447 0.186735 -13.309 -3.6 1.42109e-014 0.0001 0.733096 -0.000549055 -0.0873981 -2.1142 1.42109e-014 7.10543e-015 16.4061 -0.283275 -1.96491 -9.1036 -0.0439 -1.8651 -11.5779 -0.118688 -3.28364 -3.154 1.42109e-014 0 19.6699 -0.406033 -2.34187 -2.9377 0 1.42109e-014 5.52113 -0.673293 -0.670156 -9.5325 1.42109e-014 0 -8.01377 -0.0655463 -0.540346 -3.6982 1.42109e-014 -7.10543e-015 16.2156 -0.276781 -1.9427 -2.9509 0 0 0.859513 1.21948 -0.106119 -9.1083 -0.5168 2.2601 7.68997 -0.048849 2.69419 -3.6764 1.42109e-014 0 22.2175 -0.516672 -2.63095 -2.8831 0 0 27.0169 -0.759601 -3.16114 -2.4648 -1.5727 2.6826 -23.0398 -9.33433 -11.0312 -3.2298 -1.8647 1.8647 15.0972 18.5526 -32.1162 -2.6526 -1.5314 1.5314 -2.17673 -4.82407 9.77298 8.2078 -6.7517 -1.5996 -21.4716 -9.91158 1.1389 8.88178e-016 -44.3705 0.2846 0.486521 32.8869 1.82779 1.77636e-015 -44.4279 -2.9822 7.98527 -20.4899 1.1998 -8.88178e-016 -8.7287 10.7106 0.0590345 0.0339886 -6.92667e-005 -8.2078 -6.7517 -1.5996 -5.4617 -50.3817 7.70594 0 -44.3705 0.2862 -177.806 66.3166 170.603 1.77636e-015 -44.4277 -2.9838 -2.23039 28.9473 0.800161 1.77636e-015 -8.7287 10.7106 -6.83318e-007 -3.57359 -3.07687e-006 
0.569445 97.2341 64.8903 7.22461 -2.52793 0.983222 0 10.1816 0.1315 -4.54767 6.06212 -7.40848 1.77636e-015 10.0835 -1.0008 -0.564168 3.67655 -1.03415 -1.77636e-015 9.1 -1.3734 -0.602501 3.66998 -1.03441 0 16.6717 -2.5162 -1.11671 -10.0734 -0.921043 8.88178e-016 9.6179 1.685 4.76708 -12.4443 14.5309 -4.44089e-016 17.8152 2.585 1.98785e-016 -1.59028e-015 -0 3.0676 6.4095 9.2836 1.98785e-016 -1.59028e-015 -0 -3.0676 6.4095 9.2835 1.98785e-016 -1.59028e-015 -0 4.5704 10.946 -2.628 -8.93461 5.91608 -13.5342 10.5924 -0.5246 -2.2321 -72.7156 -24.7221 -18.0495 27.8415 -0.0001 1.42109e-014 -0.00022167 5.10778e-006 -29.2369 28.3288 0 -1.42109e-014 26.5136 9.90353 17.2076 2.4661 -1.575 2.6824 14.7388 -1.17631 12.9369 3.2298 -1.8647 1.8647 -6.87627 8.55333 24.9001 2.6526 -1.5315 1.5315 -1.03937 1.5968 -1.41882 9.1093 -0.5171 2.2601 18.1345 -0.328828 -5.74856 3.6764 0 0 -28.3907 -0.829142 3.27702 2.8831 -7.10543e-015 1.42109e-014 -18.3621 -0.350848 2.17046 9.5334 -7.10543e-015 0 20.2332 -0.407716 1.59985 3.6982 -1.42109e-014 1.42109e-014 -18.7072 -0.364042 2.20984 2.9509 7.10543e-015 0 -21.8827 -0.496546 2.56816 9.1045 -0.0439 -1.8651 15.2411 -0.189983 5.30638 3.154 1.42109e-014 0 -27.3969 -0.773161 3.17126 2.9377 -7.10543e-015 -1.42109e-014 -4.10194 -0.017644 0.492731 8.0778 -0.4887 -3.8061 14.9041 -0.167585 5.98443 3.6 0 1.42109e-014 -16.3014 0.861158 -2.01893 2.1142 -7.10543e-015 -2.84217e-014 -25.8052 -0.68736 2.99991 -4.57 10.9462 -2.628 7.70876 2.08382 7.08827 -10.5928 -0.5248 -2.2321 69.7602 -16.4194 -9.665 -27.8415 -7.10543e-015 -7.10543e-015 5.87444e-006 -1.7596e-006 30.8504 -28.3288 -3.55271e-015 0.0001 -32.1256 18.696 24.7169 -8.0767 -0.4885 -3.806 -4.5642 0.170194 -13.0474 -3.6 0 0.0001 7.61502 -0.061134 -0.920171 -2.1142 1.42109e-014 0 16.2213 -0.276976 -1.94336 -9.1036 -0.0439 -1.8651 -13.06 -0.16659 -2.00468 -3.154 1.42109e-014 0 22.6281 -0.535704 -2.67706 -2.9377 1.42109e-014 -7.10543e-015 4.21131 -0.591624 -0.511432 -9.5325 0 0 -11.1623 -0.128058 -0.494072 -3.6982 1.42109e-014 -7.10543e-015 16.7922 -0.29668 -2.00986 -2.9509 0 0 0.438025 1.15608 -0.0550699 -9.1083 -0.5168 2.2601 2.92967 0.00515515 3.33931 -3.6764 0 1.42109e-014 22.9902 -0.552766 -2.71764 -2.8831 0 0 23.5263 -0.578492 -2.7775 -2.4648 -1.5727 2.6826 -24.433 -10.6736 -9.57191 -3.2298 -1.8647 1.8647 15.3759 18.7981 -33.65 -2.6526 -1.5314 1.5314 -2.03179 -5.43511 11.2709 8.2078 -6.7517 -1.5996 -17.7064 -7.03289 3.11859 -1.77636e-015 -44.3705 0.2846 1.04827 31.8799 -4.76152 -4.44089e-015 -44.4279 -2.9822 5.58156 -21.7174 0.985918 0 -8.7287 10.7106 -2.8734e-006 -0.645918 4.74639e-007 -8.2078 -6.7517 -1.5996 -4.21856 -55.3667 5.65663 1.77636e-015 -44.3705 0.2862 -178.369 68.7439 169.598 0 -44.4277 -2.9838 -0.0205898 30.6678 -0.828409 1.77636e-015 -8.7287 10.7106 3.12075e-006 -4.28348 2.08648e-006 
0.208429 98.3949 68.0358 4.65042 -1.62569 4.15336 -8.88178e-016 10.1816 0.1315 -3.83147 6.70708 -9.93142 0 10.0835 -1.0008 0.41991 3.70733 -1.38939 0 9.1 -1.3734 0.37003 3.71366 -1.3794 0 16.6717 -2.5162 -0.212669 -10.8262 -0.968263 0 9.6179 1.685 4.22902 -12.8137 14.9761 0 17.8152 2.585 1.98785e-016 -1.59028e-015 -0 3.0676 6.4095 9.2836 1.98785e-016 -1.59028e-015 -0 -3.0676 6.4095 9.2835 1.98785e-016 -1.59028e-015 -0 4.5704 10.946 -2.628 -8.49134 5.18471 -12.7043 10.5924 -0.5246 -2.2321 -68.7759 -17.7917 -20.0243 27.8415 -0.0001 0 -0.000232159 1.05147e-005 -32.6777 28.3288 0 0 6.93418 7.83146 24.9077 2.4661 -1.575 2.6824 19.3826 0.548576 14.7156 3.2298 -1.8647 1.8647 -6.61092 8.30219 23.6421 2.6526 -1.5315 1.5315 -0.633292 0.94396 -3.47448 9.1093 -0.5171 2.2601 11.7923 -0.1354 -4.51651 3.6764 -1.42109e-014 0 -27.386 -0.772553 3.17009 2.8831 0 -1.42109e-014 -18.1101 -0.34136 2.14167 9.5334 0 0 15.9304 -0.255475 0.947784 3.6982 1.42109e-014 1.42109e-014 -20.8291 -0.450384 2.45007 2.9509 0 0 -21.2881 -0.470235 2.50164 9.1045 -0.0439 -1.8651 10.3188 -0.0771736 4.522 3.154 0 1.42109e-014 -29.4065 -0.888247 3.38411 2.9377 0 -1.42109e-014 -3.11107 -0.0101513 0.373842 8.0778 -0.4887 -3.8061 14.9086 -0.186862 4.71266 3.6 0 0 -24.3361 1.06728 -0.915764 2.1142 0 0 -25.4339 -0.66804 2.95962 -4.57 10.9462 -2.628 8.13057 1.76384 5.00241 -10.5928 -0.5248 -2.2321 66.422 -18.2091 -11.7668 -27.8415 0 0 1.77731e-005 1.177e-005 28.4934 -28.3288 0 0.0001 -20.9117 16.4188 16.3332 -8.0767 -0.4885 -3.806 -4.22798 0.167038 -12.8631 -3.6 0 0.0001 19.9396 -0.416594 -2.37119 -2.1142 -7.10543e-015 0 16.653 -0.291815 -1.99366 -9.1036 -0.0439 -1.8651 -9.57155 -0.0796408 -2.90247 -3.154 1.42109e-014 -7.10543e-015 27.4113 -0.781526 -3.20378 -2.9377 -7.10543e-015 0 2.41765 -0.590265 -0.293786 -9.5325 -1.42109e-014 0 -6.7579 -0.0420471 -1.6344 -3.6982 0 0 17.9519 -0.33874 -2.1443 -2.9509 0 0 -0.325379 1.05926 0.0373968 -9.1083 -0.5168 2.2601 4.24563 -0.00548768 3.09477 -3.6764 1.42109e-014 0 24.2544 -0.61433 -2.85841 -2.8831 7.10543e-015 1.42109e-014 19.9751 -0.418609 -2.37675 -2.4648 -1.5727 2.6826 -26.6209 -11.3039 -8.82492 -3.2298 -1.8647 1.8647 14.9468 18.4294 -31.3156 -2.6526 -1.5314 1.5314 -1.91034 -5.92488 12.4965 8.2078 -6.7517 -1.5996 -13.4049 -4.13207 4.83206 0 -44.3705 0.2846 1.22156 29.0176 -10.3117 8.88178e-016 -44.4279 -2.9822 2.4905 -21.9154 0.603442 8.88178e-016 -8.7287 10.7106 -1.40494e-006 -2.77763 4.56684e-007 -8.2078 -6.7517 -1.5996 -2.85221 -58.3524 3.43035 -3.55271e-015 -44.3705 0.2862 -178.789 75.184 170.256 0 -44.4277 -2.9838 -0.00876475 27.6868 0.00139283 -3.55271e-015 -8.7287 10.7106 2.54515e-006 -2.51914 -3.23472e-007 
-0.118547 99.6439 71.1137 2.06846 -0.723978 6.19346 8.88178e-016 10.1816 0.1315 -2.54241 7.22228 -11.1235 -4.44089e-016 10.0835 -1.0008 1.1158 3.48515 -1.54388 -8.88178e-016 9.1 -1.3734 1.06299 3.50621 -1.52916 1.77636e-015 16.6717 -2.5162 0.492145 -11.3907 -1.09847 0 9.6179 1.685 3.76965 -12.6257 14.759 -4.44089e-016 17.8152 2.585 -1.98785e-016 0 7.95139e-016 3.0676 6.4095 9.2836 -1.98785e-016 0 7.95139e-016 -3.0676 6.4095 9.2835 -1.98785e-016 0 7.95139e-016 4.5704 10.946 -2.628 -8.03195 4.57343 -12.0327 10.5924 -0.5246 -2.2321 -64.1367 -10.8022 -21.8664 27.8415 -0.0001 -1.42109e-014 -0.00021839 6.76401e-007 -36.1052 28.3288 0 1.42109e-014 -8.79875 0.602569 32.4823 2.4661 -1.575 2.6824 22.4541 2.16367 16.5066 3.2298 -1.8647 1.8647 -6.38112 8.08197 22.5373 2.6526 -1.5315 1.5315 -0.343383 0.470381 -4.97771 9.1093 -0.5171 2.2601 7.1915 -0.0448481 -3.86904 3.6764 0 0 -27.0773 -0.755552 3.13705 2.8831 0 0 -17.9574 -0.335665 2.12419 9.5334 0 0 11.8577 -0.138387 1.33989 3.6982 0 0 -22.6787 -0.532876 2.6568 2.9509 7.10543e-015 0 -20.7885 -0.44865 2.44552 9.1045 -0.0439 -1.8651 6.3315 -0.0119574 4.63347 3.154 -1.42109e-014 1.42109e-014 -31.6568 -1.02592 3.61757 2.9377 -7.10543e-015 0 -2.43889 -0.00623809 0.293116 8.0778 -0.4887 -3.8061 13.6614 -0.15695 4.32084 3.6 0 0 -32.1058 1.11804 0.168018 2.1142 7.10543e-015 0 -25.3232 -0.66232 2.94756 -4.57 10.9462 -2.628 8.32998 1.47883 3.30471 -10.5928 -0.5248 -2.2321 62.8642 -20.2537 -14.3575 -27.8415 7.10543e-015 -1.42109e-014 -2.19098e-006 3.96763e-007 25.871 -28.3288 -7.10543e-015 0.0001 -11.1925 11.5461 10.4642 -8.0767 -0.4885 -3.806 -1.69733 0.165402 -12.5221 -3.6 -1.42109e-014 0.0001 33.308 -1.14293 -3.82102 -2.1142 0 -7.10543e-015 17.5882 -0.325257 -2.10223 -9.1036 -0.0439 -1.8651 -3.20297 0.0225943 -5.27469 -3.154 0 0 32.6606 -1.10093 -3.75628 -2.9377 7.10543e-015 0 1.07009 -0.677835 -0.130093 -9.5325 -1.42109e-014 0 2.38107 0.00315339 -3.25129 -3.6982 0 0 20.0594 -0.422116 -2.38637 -2.9509 0 0 -0.97806 1.0416 0.116463 -9.1083 -0.5168 2.2601 10.3006 -0.0995271 2.22882 -3.6764 -7.10543e-015 0 26.3961 -0.72568 -3.09372 -2.8831 0 1.42109e-014 17.614 -0.326203 -2.10521 -2.4648 -1.5727 2.6826 -28.3806 -10.8803 -9.22478 -3.2298 -1.8647 1.8647 14.1118 17.677 -26.5737 -2.6526 -1.5314 1.5314 -1.83679 -6.21926 13.2532 8.2078 -6.7517 -1.5996 -9.20687 -2.24684 6.26453 0 -44.3705 0.2846 0.99497 26.5086 -10.3695 0 -44.4279 -2.9822 -0.937176 -19.661 -3.42637 0 -8.7287 10.7106 -6.9087e-006 -6.386 -1.41041e-006 -8.2078 -6.7517 -1.5996 -0.295128 -59.0177 2.83334 0 -44.3705 0.2862 178.99 85.3145 175.95 -1.77636e-015 -44.4277 -2.9838 0.633442 22.8584 -0.218623 0 -8.7287 10.7106 1.70082e-006 -2.18094 2.00815e-007 
